Coordinates
version=1
nRows=17
nColumns=40
inDegrees=yes

Units are S.I. units (second, meters, Newtons, ...)
If the header above contains a line with 'inDegrees', this indicates whether rotational values are in degrees (yes) or radians (no).

endheader
time	pelvis_tilt	pelvis_list	pelvis_rotation	pelvis_tx	pelvis_ty	pelvis_tz	hip_flexion_r	hip_adduction_r	hip_rotation_r	knee_angle_r	knee_angle_r_beta	ankle_angle_r	subtalar_angle_r	mtp_angle_r	hip_flexion_l	hip_adduction_l	hip_rotation_l	knee_angle_l	knee_angle_l_beta	ankle_angle_l	subtalar_angle_l	mtp_angle_l	lumbar_extension	lumbar_bending	lumbar_rotation	arm_flex_r	arm_add_r	arm_rot_r	elbow_flex_r	pro_sup_r	wrist_flex_r	wrist_dev_r	arm_flex_l	arm_add_l	arm_rot_l	elbow_flex_l	pro_sup_l	wrist_flex_l	wrist_dev_l
      1.77000000	    -13.17871963	     -2.39654166	     -2.32309152	      0.15905586	      0.50429535	     -1.20467203	     87.48742521	    -42.13449601	      5.74395717	    115.08614167	      2.00863210	     33.02618151	      9.59821630	      0.00000000	     96.89599879	    -48.25288145	     16.89659330	    113.30997048	      1.97763206	     29.77911218	     22.18985176	      0.00000000	    -14.89601336	      1.53288798	      1.46048794	     44.99988051	    -15.00000068	     44.99988051	     75.00017585	     45.00000026	      0.00000000	      0.00000000	     44.99988051	    -15.00000068	     44.99988051	     75.00017585	     45.00000026	      0.00000000	      0.00000000
      1.77500000	    -13.25485469	     -2.29348320	     -2.35248898	      0.15911451	      0.50198338	     -1.20459320	     88.07011293	    -42.15984677	      6.25494072	    115.42543373	      2.01455386	     33.08376614	      9.84017872	      0.00000000	     97.29766396	    -48.29310834	     17.13018607	    113.60944291	      1.98285884	     29.76100098	     22.29773349	      0.00000000	    -14.81558428	      1.46951825	      1.57253636	     44.99988177	    -15.00000065	     44.99988177	     75.00017585	     45.00000026	      0.00000000	      0.00000000	     44.99988177	    -15.00000065	     44.99988177	     75.00017585	     45.00000026	      0.00000000	      0.00000000
      1.78000000	    -12.93405366	     -2.18969607	     -2.29427518	      0.15905796	      0.50106630	     -1.20471860	     88.04879801	    -42.27061382	      6.53284969	    115.64713538	      2.01842328	     33.32446343	      9.44411244	      0.00000000	     96.92728868	    -48.24061905	     17.03227418	    113.80563110	      1.98628297	     30.19881414	     22.05068757	      0.00000000	    -15.28326572	      1.32034705	      1.46507224	     44.99988312	    -15.00000062	     44.99988312	     75.00017585	     45.00000026	      0.00000000	      0.00000000	     44.99988312	    -15.00000062	     44.99988312	     75.00017585	     45.00000026	      0.00000000	      0.00000000
      1.78500000	    -13.27093216	     -2.24941225	     -2.40253967	      0.15912465	      0.49786654	     -1.20466240	     88.84391560	    -42.18929834	      6.93020459	    116.02690026	      2.02505143	     33.24479310	     10.00283547	      0.00000000	     98.03654972	    -48.30305325	     17.77284715	    114.21716068	      1.99346552	     29.90490090	     22.36088623	      0.00000000	    -14.85619702	      1.48136342	      1.75874894	     44.99988424	    -15.00000060	     44.99988424	     75.00017585	     45.00000026	      0.00000000	      0.00000000	     44.99988424	    -15.00000060	     44.99988424	     75.00017585	     45.00000026	      0.00000000	      0.00000000
      1.79000000	    -13.16397974	     -2.25209050	     -2.40459589	      0.15917526	      0.49619176	     -1.20477637	     89.02258535	    -42.24260714	      7.18568788	    116.28209208	      2.02950537	     33.33543572	     10.09419190	      0.00000000	     98.23974261	    -48.30947221	     18.06603916	    114.48862728	      1.99820350	     30.03157803	     22.46092215	      0.00000000	    -15.02674437	      1.51064965	      1.81068609	     44.99988546	    -15.00000057	     44.99988546	     75.00017585	     45.00000026	      0.00000000	      0.00000000	     44.99988546	    -15.00000057	     44.99988546	     75.00017585	     45.00000026	      0.00000000	      0.00000000
      1.79500000	    -13.17314085	     -2.29428224	     -2.42468943	      0.15925669	      0.49411250	     -1.20487932	     89.32058815	    -42.26972284	      7.41275473	    116.56085414	      2.03437068	     33.40212890	     10.16719648	      0.00000000	     98.70834114	    -48.30491100	     18.52481215	    114.79489786	      2.00354893	     30.10098935	     22.51113774	      0.00000000	    -15.02638696	      1.61817314	      1.94200252	     44.99988665	    -15.00000054	     44.99988665	     75.00017585	     45.00000026	      0.00000000	      0.00000000	     44.99988665	    -15.00000054	     44.99988665	     75.00017585	     45.00000026	      0.00000000	      0.00000000
      1.80000000	    -12.91413579	     -2.25217301	     -2.42206352	      0.15933154	      0.49279915	     -1.20498910	     89.36823984	    -42.35161102	      7.72470491	    116.80921338	      2.03870537	     33.49070642	     10.32288008	      0.00000000	     98.61454109	    -48.32250884	     18.69419394	    115.04208450	      2.00786315	     30.28449148	     22.69280944	      0.00000000	    -15.37975684	      1.51643052	      1.86523345	     44.99988780	    -15.00000052	     44.99988780	     75.00017585	     45.00000026	      0.00000000	      0.00000000	     44.99988780	    -15.00000052	     44.99988780	     75.00017585	     45.00000026	      0.00000000	      0.00000000
      1.80500000	    -12.80995870	     -2.23005591	     -2.43460541	      0.15940115	      0.49103001	     -1.20507598	     89.59714432	    -42.39821315	      8.04075461	    117.08057063	      2.04344145	     33.60125077	     10.46535137	      0.00000000	     98.79905230	    -48.32061900	     18.97547655	    115.32584855	      2.01281577	     30.39908189	     22.77212389	      0.00000000	    -15.52146754	      1.47614888	      1.86643711	     44.99988888	    -15.00000049	     44.99988888	     75.00017585	     45.00000026	      0.00000000	      0.00000000	     44.99988888	    -15.00000049	     44.99988888	     75.00017585	     45.00000026	      0.00000000	      0.00000000
      1.81000000	    -12.83164407	     -2.24923707	     -2.45975466	      0.15947283	      0.48892931	     -1.20518381	     89.94411795	    -42.41107913	      8.32035361	    117.36340631	      2.04837786	     33.68017448	     10.55250311	      0.00000000	     99.25179301	    -48.30289175	     19.39080272	    115.63651942	      2.01823800	     30.46338229	     22.78386352	      0.00000000	    -15.51064552	      1.56234370	      1.99141733	     44.99988992	    -15.00000047	     44.99988992	     75.00017585	     45.00000026	      0.00000000	      0.00000000	     44.99988992	    -15.00000047	     44.99988992	     75.00017585	     45.00000026	      0.00000000	      0.00000000
      1.81500000	    -12.76353060	     -2.27483377	     -2.47706541	      0.15953396	      0.48703786	     -1.20530371	     90.16126704	    -42.41742399	      8.58664007	    117.62778079	      2.05299207	     33.77724314	     10.60760007	      0.00000000	     99.56795699	    -48.28768117	     19.78980834	    115.92618478	      2.02329361	     30.57983876	     22.81095110	      0.00000000	    -15.59953687	      1.65322216	      2.07467087	     44.99989095	    -15.00000045	     44.99989095	     75.00017585	     45.00000026	      0.00000000	      0.00000000	     44.99989095	    -15.00000045	     44.99989095	     75.00017585	     45.00000026	      0.00000000	      0.00000000
      1.82000000	    -12.44105986	     -2.24399063	     -2.49088772	      0.15964206	      0.48601112	     -1.20542775	     90.07613612	    -42.48091641	      8.80920192	    117.83728216	      2.05664856	     33.94851220	     10.59978706	      0.00000000	     99.33236516	    -48.31862757	     19.91636053	    116.15223583	      2.02723895	     30.91665352	     22.94552063	      0.00000000	    -16.04137725	      1.50176436	      1.94983887	     44.99989191	    -15.00000043	     44.99989191	     75.00017585	     45.00000026	      0.00000000	      0.00000000	     44.99989191	    -15.00000043	     44.99989191	     75.00017585	     45.00000026	      0.00000000	      0.00000000
      1.82500000	    -12.48949190	     -2.26418299	     -2.51731144	      0.15972887	      0.48365490	     -1.20556272	     90.50073099	    -42.49654404	      9.16694553	    118.14673159	      2.06204947	     33.95589990	     10.89533595	      0.00000000	     99.89731430	    -48.28937470	     20.40656165	    116.50595285	      2.03341248	     30.79170967	     23.00405768	      0.00000000	    -15.94946436	      1.58567642	      2.08205880	     44.99989283	    -15.00000041	     44.99989283	     75.00017585	     45.00000026	      0.00000000	      0.00000000	     44.99989283	    -15.00000041	     44.99989283	     75.00017585	     45.00000026	      0.00000000	      0.00000000
      1.83000000	    -12.27856256	     -2.27934018	     -2.52445707	      0.15985939	      0.48219201	     -1.20572922	     90.53479984	    -42.55184763	      9.40287212	    118.37774987	      2.06608150	     34.06242858	     10.98309557	      0.00000000	     99.96121655	    -48.29429406	     20.70868028	    116.77476437	      2.03810412	     30.98705986	     23.13956727	      0.00000000	    -16.22159984	      1.56183383	      2.02230510	     44.99989369	    -15.00000040	     44.99989369	     75.00017585	     45.00000026	      0.00000000	      0.00000000	     44.99989369	    -15.00000040	     44.99989369	     75.00017585	     45.00000026	      0.00000000	      0.00000000
      1.83500000	    -12.06194183	     -2.29858378	     -2.50542618	      0.15997458	      0.48078682	     -1.20593078	     90.54905750	    -42.63140449	      9.61109945	    118.61357968	      2.07019750	     34.16375106	     11.09454586	      0.00000000	     99.97309815	    -48.26030482	     20.98402037	    117.02189380	      2.04241734	     31.22891133	     23.24303142	      0.00000000	    -16.47927521	      1.53532003	      1.92303524	     44.99989453	    -15.00000038	     44.99989453	     75.00017585	     45.00000026	      0.00000000	      0.00000000	     44.99989453	    -15.00000038	     44.99989453	     75.00017585	     45.00000026	      0.00000000	      0.00000000
      1.84000000	    -12.15401187	     -2.32444766	     -2.60390338	      0.16000386	      0.47831581	     -1.20591501	     91.02185516	    -42.51269979	      9.96076765	    118.93427391	      2.07579467	     34.21001465	     11.12954837	      0.00000000	    100.61131859	    -48.27647450	     21.52945734	    117.36868907	      2.04847006	     31.17491685	     23.22218277	      0.00000000	    -16.35083688	      1.68023124	      2.24695958	     44.99989521	    -15.00000037	     44.99989521	     75.00017585	     45.00000026	      0.00000000	      0.00000000	     44.99989521	    -15.00000037	     44.99989521	     75.00017585	     45.00000026	      0.00000000	      0.00000000
      1.84500000	    -11.82669626	     -2.33226590	     -2.55722207	      0.16013163	      0.47726440	     -1.20619749	     90.88372427	    -42.62476755	     10.15883947	    119.12321448	      2.07909231	     34.32906534	     11.14586409	      0.00000000	    100.43368209	    -48.23347434	     21.71263274	    117.59361249	      2.05239572	     31.43237732	     23.25316551	      0.00000000	    -16.75500959	      1.63765127	      2.07856423	     44.99989601	    -15.00000035	     44.99989601	     75.00017585	     45.00000026	      0.00000000	      0.00000000	     44.99989601	    -15.00000035	     44.99989601	     75.00017585	     45.00000026	      0.00000000	      0.00000000
      1.85000000	    -11.86058890	     -2.33665419	     -2.66127268	      0.16023222	      0.47502552	     -1.20613544	     91.28755618	    -42.51571377	     10.50743770	    119.42211494	      2.08430911	     34.39002937	     11.28311948	      0.00000000	    100.92612005	    -48.29052876	     22.19106113	    117.91407157	      2.05798878	     31.43546793	     23.37757124	      0.00000000	    -16.68078588	      1.70020987	      2.36039124	     44.99989679	    -15.00000034	     44.99989679	     75.00017585	     45.00000026	      0.00000000	      0.00000000	     44.99989679	    -15.00000034	     44.99989679	     75.00017585	     45.00000026	      0.00000000	      0.00000000
